# xmcd CD database file
#
# Track frame offsets:
#	150
#	13124
#	26623
#	39973
#	56280
#	73852
#	83424
#	100272
#	117979
#	132130
#	142817
#	154469
#	171154
#
# Disc length: 2523 seconds
#
# Revision: 0
# Processed by: cddbd v1.5.2PL0 Copyright (c) Steve Scherf et al.
# Submitted via: CDex 1.51
#
DISCID=a209d90d
DTITLE=Van Morrison and Linda Gail Lewis - 2006 you win again
DYEAR=2006
DGENRE=Blues
TTITLE0=let´s talk about us
TTITLE1=you win again
TTITLE2=jambalaya
TTITLE3=crasy arms
TTITLE4=old black joe
TTITLE5=think twice before you go
TTITLE6=no way pedro
TTITLE7=a shot of rhythm and blues
TTITLE8=real gone lover
TTITLE9=why don´t you love me
TTITLE10=cadillac
TTITLE11=baby
TTITLE12=boogie chillen
EXTD=YEAR: 2006
EXTT0=
EXTT1=
EXTT2=
EXTT3=
EXTT4=
EXTT5=
EXTT6=
EXTT7=
EXTT8=
EXTT9=
EXTT10=
EXTT11=
EXTT12=
PLAYORDER=
